<?xml version="1.0" encoding="UTF-8"?>
<svg id="Layer_2" data-name="Layer 2" xmlns="http://www.w3.org/2000/svg" viewBox="0 0 31.07 35.51">
  <defs>
    <style>
      .cls-1 {
        fill: #269bdb;
        stroke-width: 0px;
      }
    </style>
  </defs>
  <g id="Layer_1-2" data-name="Layer 1">
    <path class="cls-1" d="M15.18,0c3.3,0,6.16.51,8.58,1.53,2.42,1.02,4.32,2.3,5.72,3.83.33.35.54.68.63.98s0,.6-.3.89l-4.84,4.55c-.15.13-.37.19-.66.19-.41,0-.68-.11-.83-.34-1.21-1.73-2.51-2.92-3.9-3.57s-2.84-.98-4.35-.98c-1.21,0-2.24.25-3.08.74s-1.25,1.11-1.21,1.84c.04.8.56,1.44,1.57,1.92s2.26.93,3.74,1.34c1.48.42,3.1.87,4.84,1.37,1.74.5,3.34,1.17,4.81,2.01s2.69,1.93,3.68,3.26c.99,1.33,1.49,3.01,1.49,5.06,0,1.57-.37,3.01-1.1,4.34s-1.75,2.48-3.05,3.45c-1.3.98-2.86,1.73-4.67,2.28-1.82.54-3.8.81-5.97.81-3.23,0-6.16-.54-8.8-1.63-2.64-1.09-4.91-2.68-6.82-4.79-.33-.35-.54-.68-.63-.98-.09-.3,0-.6.3-.89l4.84-4.55c.14-.13.34-.19.6-.19.33,0,.62.11.88.34.81.8,1.67,1.53,2.59,2.2.91.67,1.85,1.23,2.81,1.68.95.45,1.87.8,2.77,1.05s1.71.38,2.45.38c1.17,0,2.1-.25,2.77-.74.68-.5,1.02-1.16,1.02-1.99s-.49-1.56-1.46-2.08c-.97-.53-2.19-1.02-3.66-1.49-1.47-.46-3.06-.95-4.78-1.46-1.72-.51-3.32-1.18-4.78-2.01-1.47-.83-2.68-1.88-3.66-3.14-.97-1.26-1.46-2.87-1.46-4.81,0-1.44.31-2.8.94-4.07.62-1.28,1.53-2.38,2.72-3.31s2.65-1.66,4.37-2.21c1.72-.54,3.68-.81,5.88-.81Z"/>
  </g>
</svg>