<?xml version="1.0" encoding="UTF-8"?>
<svg id="Layer_2" data-name="Layer 2" xmlns="http://www.w3.org/2000/svg" viewBox="0 0 171.84 22.06">
  <defs>
    <style>
      .cls-1 {
        fill: #269bdb;
      }

      .cls-1, .cls-2, .cls-3, .cls-4 {
        stroke-width: 0px;
      }

      .cls-2 {
        fill: #e85dc4;
      }

      .cls-3 {
        fill: #7c7c7c;
      }

      .cls-4 {
        fill: #7c72b7;
      }
    </style>
  </defs>
  <g id="Layer_1-2" data-name="Layer 1">
    <g>
      <path class="cls-1" d="M7.24,1.05c1.57,0,2.94.28,4.09.84,1.15.56,2.06,1.26,2.73,2.1.16.19.26.37.3.54s0,.33-.14.49l-2.31,2.49c-.07.07-.17.11-.31.11-.19,0-.32-.06-.39-.18-.58-.94-1.2-1.59-1.86-1.95s-1.35-.54-2.07-.54c-.58,0-1.07.14-1.47.41s-.6.61-.58,1.01c.02.44.27.79.75,1.05s1.08.51,1.78.73c.71.23,1.48.48,2.31.75.83.27,1.59.64,2.29,1.1s1.28,1.06,1.76,1.78c.47.73.71,1.65.71,2.77,0,.86-.17,1.65-.52,2.37s-.83,1.35-1.45,1.89c-.62.53-1.36.95-2.23,1.25-.87.3-1.81.44-2.84.44-1.54,0-2.94-.3-4.19-.89-1.26-.59-2.34-1.47-3.25-2.62-.16-.19-.26-.37-.3-.54-.04-.17,0-.33.14-.48l2.31-2.49c.07-.07.16-.1.29-.1.16,0,.3.06.42.18.38.44.8.84,1.23,1.21.44.37.88.67,1.34.92.45.25.89.44,1.32.58s.82.21,1.17.21c.56,0,1-.14,1.32-.41.32-.27.49-.63.49-1.09s-.23-.85-.7-1.14c-.46-.29-1.04-.56-1.74-.81-.7-.25-1.46-.52-2.28-.8-.82-.28-1.58-.65-2.28-1.1-.7-.45-1.28-1.03-1.74-1.72-.46-.69-.7-1.57-.7-2.63,0-.79.15-1.53.45-2.23.3-.7.73-1.3,1.3-1.81s1.26-.91,2.08-1.21c.82-.3,1.76-.44,2.81-.44Z"/>
      <path class="cls-1" d="M18.87,0c.77,0,1.42.27,1.97.81.56.58.82,1.25.79,2.02,0,.38-.08.75-.24,1.1s-.37.65-.64.92-.58.47-.93.62-.72.22-1.1.22c-.75,0-1.41-.28-1.97-.84-.28-.28-.48-.59-.62-.94-.13-.35-.19-.71-.17-1.07.02-.4.11-.77.26-1.11.16-.34.37-.64.63-.89.26-.25.57-.45.92-.6.35-.15.72-.22,1.1-.22ZM16.83,6.42l3.56.1c.12,0,.22.06.3.17.08.11.11.26.09.43-.03,2.03-.03,4.05,0,6.07.04,2.02.11,4.04.21,6.07.02.17-.01.32-.09.45-.08.12-.17.18-.28.18l-3.59.21c-.1,0-.2-.06-.29-.17-.09-.11-.13-.26-.13-.43-.11-2.08-.17-4.15-.21-6.23-.03-2.07-.03-4.15,0-6.23,0-.19.04-.34.12-.46.08-.11.18-.17.3-.17Z"/>
      <path class="cls-4" d="M28.94,1c.25,0,.5,0,.77.03s.55.04.83.08c.98.12,1.9.33,2.75.63.86.3,1.61.71,2.25,1.23.65.52,1.16,1.19,1.53,1.99.38.8.56,1.78.56,2.94s-.23,2.11-.68,3.01c-.46.91-1.08,1.7-1.88,2.36-.8.66-1.73,1.21-2.79,1.64-1.07.43-2.21.72-3.43.88l.05,1.63c.02.54.04,1.08.08,1.63,0,.24-.04.45-.1.62-.07.17-.17.25-.29.25l-3.78.21c-.12,0-.23-.08-.31-.24-.09-.16-.14-.36-.16-.6-.21-4.49-.26-8.98-.16-13.47-.05,0-.1,0-.13.03-.23,0-.37-.03-.42-.1l-1.36-2.94c-.03-.11.08-.25.34-.42.44-.31.92-.56,1.45-.73.53-.17,1.08-.31,1.64-.41.56-.1,1.11-.16,1.66-.18.55-.03,1.07-.04,1.56-.04ZM28.86,4.98c-.09,2.25-.12,4.53-.08,6.82.56-.11,1.09-.25,1.6-.42.51-.17.95-.41,1.34-.72s.7-.68.93-1.13c.24-.45.35-.99.35-1.64s-.12-1.13-.37-1.51-.56-.67-.96-.88c-.39-.21-.84-.35-1.34-.42-.5-.07-.99-.1-1.48-.1Z"/>
      <path class="cls-4" d="M44.16,6.48c1.4-.2,2.66-.02,3.77.53s1.93,1.47,2.47,2.77c.13.32.24.64.33.96.09.32.18.65.26,1,.07.2.08.35.04.43-.04.08-.15.16-.34.22l-7.66,2.73c.29.65.65,1.07,1.08,1.26.43.2.93.24,1.47.12.5-.11.88-.31,1.16-.61.27-.3.4-.63.39-.98,0-.09.03-.18.07-.27.04-.09.11-.17.21-.21l3.42-1.09c.27-.06.43.04.46.28.25,1.78-.1,3.19-1.06,4.23-.96,1.04-2.41,1.73-4.35,2.07-2.08.38-3.76.13-5.04-.76-1.28-.89-2.11-2.37-2.5-4.45-.44-2.27-.24-4.06.61-5.39.85-1.33,2.42-2.23,4.7-2.72.09-.01.17-.03.26-.05.09-.02.17-.04.26-.05ZM44.39,9.94c-.05,0-.11,0-.16,0-.05.02-.11.03-.18.04-.48.12-.87.39-1.17.8s-.44,1.01-.42,1.81l3.91-1.4c-.21-.5-.49-.85-.84-1.05-.34-.2-.73-.27-1.14-.21Z"/>
      <path class="cls-2" d="M61.34,1.1c.93,0,1.76.14,2.5.42s1.38.65,1.9,1.11c.52.46.94,1,1.26,1.61.31.61.51,1.25.58,1.91.02.09,0,.19-.07.3-.06.11-.16.18-.3.2l-3.72.39c-.1.02-.2,0-.3-.07-.1-.06-.15-.16-.17-.3-.02-.28-.07-.56-.16-.85-.09-.29-.22-.54-.41-.76s-.43-.4-.73-.54c-.31-.14-.7-.19-1.17-.16-.63.04-1.16.24-1.6.6s-.78.84-1.05,1.42-.45,1.24-.57,1.99c-.11.75-.17,1.53-.17,2.33s.06,1.57.17,2.31c.12.73.3,1.38.57,1.95.26.57.61,1.01,1.05,1.34s.97.47,1.6.43c.51-.04,1-.15,1.49-.33s.93-.44,1.31-.77c-.02-.17-.03-.34-.03-.5v-.5c0-.23,0-.45.01-.67s.01-.45.01-.69c-.39.04-.76.08-1.13.13-.37.05-.73.12-1.1.21-.09.02-.17,0-.24-.05-.07-.05-.12-.13-.16-.24l-.68-3.15c-.03-.09-.02-.17.04-.26.06-.09.14-.15.25-.18.72-.14,1.42-.25,2.12-.33.7-.08,1.41-.14,2.12-.17.33-.04.66-.05,1-.05s.67,0,1.02.03c.42,0,.85.03,1.28.08.12.02.22.07.29.16.07.09.09.17.08.26l-.16,1.1v.08c-.04.25-.06.49-.07.73,0,.25-.02.49-.04.73-.02.39-.03.76-.03,1.14v1.14c0,.8,0,1.6.03,2.4.02.8.04,1.59.08,2.4.02.12-.01.23-.09.31-.08.09-.18.13-.3.13l-3.77.21c-.26,0-.41-.15-.45-.44v-.31c-.63.35-1.35.57-2.18.65-1.4.16-2.64.05-3.72-.31s-2-.94-2.74-1.73-1.31-1.77-1.69-2.96-.58-2.52-.58-4.01.16-2.87.47-4.09c.32-1.22.82-2.26,1.51-3.12.69-.86,1.59-1.52,2.71-1.98,1.12-.46,2.48-.69,4.09-.69Z"/>
      <path class="cls-2" d="M72.74,0c.77,0,1.42.27,1.97.81.56.58.82,1.25.79,2.02,0,.38-.08.75-.24,1.1s-.37.65-.64.92-.58.47-.93.62-.72.22-1.1.22c-.75,0-1.41-.28-1.97-.84-.28-.28-.48-.59-.62-.94-.13-.35-.19-.71-.17-1.07.02-.4.11-.77.26-1.11.16-.34.37-.64.63-.89.26-.25.57-.45.92-.6.35-.15.72-.22,1.1-.22ZM70.7,6.42l3.56.1c.12,0,.22.06.3.17.08.11.11.26.09.43-.03,2.03-.03,4.05,0,6.07.04,2.02.11,4.04.21,6.07.02.17-.01.32-.09.45-.08.12-.17.18-.28.18l-3.59.21c-.1,0-.2-.06-.29-.17-.09-.11-.13-.26-.13-.43-.11-2.08-.17-4.15-.21-6.23-.03-2.07-.03-4.15,0-6.23,0-.19.04-.34.12-.46.08-.11.18-.17.3-.17Z"/>
      <g>
        <path class="cls-3" d="M80.34,8.52l3.15-7.01h1.28l3.16,7.01h-1.37l-2.7-6.32h.52l-2.71,6.32h-1.33ZM81.79,6.89l.36-1.02h3.78l.35,1.02h-4.49Z"/>
        <path class="cls-3" d="M88.72,10.46V3.17h1.19v1.26l-.05,1.42.1,1.42v3.18h-1.24ZM91.68,8.59c-.44,0-.84-.1-1.19-.3-.35-.2-.63-.5-.84-.91s-.31-.92-.31-1.54.1-1.14.3-1.55c.2-.4.48-.7.84-.9.36-.2.76-.3,1.21-.3.52,0,.98.11,1.39.34s.73.55.97.96c.24.41.36.89.36,1.44s-.12,1.04-.36,1.45-.56.73-.97.96c-.41.23-.87.34-1.39.34ZM91.53,7.53c.31,0,.58-.07.82-.21.24-.14.43-.34.57-.59.14-.25.21-.55.21-.88s-.07-.64-.21-.89c-.14-.25-.33-.44-.57-.58s-.51-.21-.82-.21-.56.07-.8.21-.43.33-.57.58c-.14.25-.21.55-.21.89s.07.63.21.88c.14.25.33.45.57.59.24.14.51.21.8.21Z"/>
        <path class="cls-3" d="M95.59,8.52V1.09h1.24v7.43h-1.24Z"/>
        <path class="cls-3" d="M99.11,2.29c-.23,0-.43-.07-.58-.22-.15-.15-.23-.33-.23-.54,0-.2.08-.37.23-.52.15-.15.34-.22.58-.22s.43.07.58.21c.15.14.23.31.23.52s-.07.4-.22.55c-.15.15-.34.23-.58.23ZM98.49,8.52V3.17h1.24v5.35h-1.24Z"/>
        <path class="cls-3" d="M101.38,8.52V1.09h1.24v7.43h-1.24ZM102.39,7.33l.03-1.57,2.79-2.58h1.5l-2.37,2.37-.67.56-1.28,1.22ZM105.42,8.52l-1.97-2.41.79-1,2.69,3.41h-1.51Z"/>
        <path class="cls-3" d="M109.35,8.59c-.4,0-.75-.07-1.05-.21-.3-.14-.53-.33-.7-.57-.16-.24-.25-.52-.25-.83s.07-.57.22-.81c.14-.24.38-.43.71-.57.33-.14.76-.21,1.3-.21h1.55v.83h-1.46c-.42,0-.71.07-.86.21-.15.14-.23.31-.23.52,0,.22.09.4.27.53.18.13.43.2.75.2s.58-.07.83-.21c.24-.14.42-.35.54-.62l.2.75c-.12.31-.33.56-.64.73-.31.17-.7.26-1.18.26ZM111.03,8.52v-1.09l-.06-.22v-1.89c0-.37-.11-.65-.33-.86-.22-.2-.56-.31-1.02-.31-.29,0-.58.05-.87.14s-.53.22-.74.39l-.49-.91c.29-.22.64-.39,1.03-.5.39-.11.8-.17,1.23-.17.78,0,1.38.19,1.8.56.42.37.63.95.63,1.72v3.13h-1.18Z"/>
        <path class="cls-3" d="M115.48,8.59c-.45,0-.88-.06-1.29-.18-.41-.12-.73-.26-.98-.43l.48-.95c.24.15.53.28.86.38.33.1.67.15,1.01.15.39,0,.67-.05.85-.16s.27-.25.27-.43c0-.15-.06-.26-.18-.33-.12-.08-.28-.14-.47-.18-.19-.04-.41-.08-.65-.11s-.47-.08-.71-.14c-.24-.06-.45-.14-.65-.25-.19-.11-.35-.26-.47-.45-.12-.19-.18-.44-.18-.75,0-.33.1-.63.29-.88.19-.25.47-.45.82-.59.35-.14.77-.21,1.25-.21.35,0,.72.04,1.09.12.37.08.68.2.93.35l-.49.95c-.25-.15-.5-.25-.76-.31s-.52-.09-.77-.09c-.37,0-.65.05-.84.17-.19.11-.28.25-.28.43,0,.16.06.28.18.36.12.08.28.14.47.18.19.04.41.08.65.12.24.04.47.08.7.14.23.06.45.14.65.24s.36.25.48.44c.12.19.18.43.18.73,0,.34-.1.63-.3.88-.2.24-.47.43-.83.57s-.79.21-1.29.21Z"/>
        <path class="cls-3" d="M119.6,2.29c-.23,0-.43-.07-.58-.22-.15-.15-.23-.33-.23-.54,0-.2.08-.37.23-.52.15-.15.34-.22.58-.22s.43.07.58.21c.15.14.23.31.23.52s-.07.4-.22.55c-.15.15-.34.23-.58.23ZM118.98,8.52V3.17h1.24v5.35h-1.24Z"/>
        <path class="cls-3" d="M124.75,8.52V1.51h2.88c.62,0,1.15.1,1.6.3.44.2.79.48,1.03.86.24.37.36.82.36,1.34s-.12.96-.36,1.33c-.24.37-.58.66-1.03.86s-.98.31-1.6.31h-2.15l.57-.6v2.62h-1.3ZM126.05,6.03l-.57-.64h2.09c.57,0,1.01-.12,1.3-.37.29-.24.44-.59.44-1.03s-.15-.78-.44-1.03c-.29-.24-.72-.36-1.3-.36h-2.09l.57-.64v4.07Z"/>
        <path class="cls-3" d="M134.41,8.59c-.59,0-1.11-.12-1.56-.36-.44-.24-.79-.56-1.03-.97-.24-.41-.36-.88-.36-1.42s.12-1.01.36-1.42.56-.73.98-.97.89-.36,1.43-.36.98.12,1.39.35.73.55.96.97.35.9.35,1.47c0,.05,0,.1,0,.17s0,.13-.01.19h-4.46v-.83h3.79l-.5.26c0-.3-.06-.57-.19-.81s-.31-.42-.54-.55c-.23-.13-.49-.2-.8-.2s-.57.07-.81.2c-.24.13-.42.31-.55.56-.13.24-.19.52-.19.83v.2c0,.32.07.6.22.85.14.25.35.44.62.57.27.14.58.21.93.21.3,0,.57-.05.81-.15s.45-.25.64-.44l.68.78c-.25.28-.55.49-.92.64-.36.15-.78.22-1.25.22Z"/>
        <path class="cls-3" d="M141.16,3.1c.43,0,.82.08,1.15.25.33.17.59.42.79.77.2.35.3.79.3,1.33v3.06h-1.25v-2.9c0-.47-.11-.83-.33-1.06-.22-.23-.53-.35-.94-.35-.29,0-.55.06-.78.18-.23.12-.4.3-.53.54s-.19.54-.19.9v2.7h-1.24V3.17h1.19v1.45l-.21-.45c.18-.34.45-.6.81-.79s.77-.28,1.24-.28Z"/>
        <path class="cls-3" d="M145.62,2.29c-.23,0-.43-.07-.58-.22-.15-.15-.23-.33-.23-.54,0-.2.08-.37.23-.52.15-.15.34-.22.58-.22s.43.07.58.21c.15.14.23.31.23.52s-.07.4-.22.55c-.15.15-.34.23-.58.23ZM145,8.52V3.17h1.24v5.35h-1.24Z"/>
        <path class="cls-3" d="M147.89,8.52V1.09h1.24v7.43h-1.24Z"/>
        <path class="cls-3" d="M152.39,8.59c-.4,0-.75-.07-1.05-.21-.3-.14-.53-.33-.7-.57-.16-.24-.25-.52-.25-.83s.07-.57.22-.81c.14-.24.38-.43.71-.57.33-.14.76-.21,1.3-.21h1.55v.83h-1.46c-.42,0-.71.07-.86.21-.15.14-.23.31-.23.52,0,.22.09.4.27.53.18.13.43.2.75.2s.58-.07.83-.21c.24-.14.42-.35.54-.62l.2.75c-.12.31-.33.56-.64.73-.31.17-.7.26-1.18.26ZM154.07,8.52v-1.09l-.06-.22v-1.89c0-.37-.11-.65-.33-.86-.22-.2-.56-.31-1.02-.31-.29,0-.58.05-.87.14s-.53.22-.74.39l-.49-.91c.29-.22.64-.39,1.03-.5.39-.11.8-.17,1.23-.17.78,0,1.38.19,1.8.56.42.37.63.95.63,1.72v3.13h-1.18Z"/>
        <path class="cls-3" d="M157.48,2.29c-.23,0-.43-.07-.58-.22-.15-.15-.23-.33-.23-.54,0-.2.08-.37.23-.52.15-.15.34-.22.58-.22s.43.07.58.21c.15.14.23.31.23.52s-.07.4-.22.55c-.15.15-.34.23-.58.23ZM156.86,8.52V3.17h1.24v5.35h-1.24Z"/>
        <path class="cls-3" d="M161.36,8.59c-.4,0-.75-.07-1.05-.21-.3-.14-.53-.33-.7-.57-.16-.24-.25-.52-.25-.83s.07-.57.22-.81c.14-.24.38-.43.71-.57.33-.14.76-.21,1.3-.21h1.55v.83h-1.46c-.42,0-.71.07-.86.21-.15.14-.23.31-.23.52,0,.22.09.4.27.53.18.13.43.2.75.2s.58-.07.83-.21c.24-.14.42-.35.54-.62l.2.75c-.12.31-.33.56-.64.73-.31.17-.7.26-1.18.26ZM163.04,8.52v-1.09l-.06-.22v-1.89c0-.37-.11-.65-.33-.86-.22-.2-.56-.31-1.02-.31-.29,0-.58.05-.87.14s-.53.22-.74.39l-.49-.91c.29-.22.64-.39,1.03-.5.39-.11.8-.17,1.23-.17.78,0,1.38.19,1.8.56.42.37.63.95.63,1.72v3.13h-1.18Z"/>
        <path class="cls-3" d="M168.86,3.1c.43,0,.82.08,1.15.25.33.17.59.42.79.77.2.35.3.79.3,1.33v3.06h-1.25v-2.9c0-.47-.11-.83-.33-1.06-.22-.23-.53-.35-.94-.35-.29,0-.55.06-.78.18-.23.12-.4.3-.53.54s-.19.54-.19.9v2.7h-1.24V3.17h1.19v1.45l-.21-.45c.18-.34.45-.6.81-.79s.77-.28,1.24-.28Z"/>
        <path class="cls-3" d="M84.61,20.15c-.55,0-1.05-.09-1.51-.27-.46-.18-.86-.43-1.2-.76-.34-.33-.6-.71-.79-1.14s-.28-.91-.28-1.44.09-1.01.28-1.44.45-.81.8-1.14c.34-.33.74-.58,1.2-.76s.97-.27,1.53-.27,1.12.1,1.6.29c.48.19.88.48,1.21.85l-.82.8c-.27-.27-.57-.48-.89-.61-.32-.13-.67-.2-1.05-.2s-.72.06-1.03.18c-.31.12-.58.29-.81.51-.23.22-.4.48-.53.78-.13.3-.19.63-.19.99s.06.68.19.99.3.57.53.79c.23.22.49.39.8.51.31.12.65.18,1.02.18.35,0,.68-.06,1.01-.17.32-.11.63-.3.93-.56l.73.97c-.36.29-.78.52-1.26.67-.48.15-.97.23-1.47.23ZM86.12,19.09v-2.61h1.22v2.78l-1.22-.17Z"/>
        <path class="cls-3" d="M89.57,13.82c-.23,0-.43-.07-.58-.22-.15-.15-.23-.33-.23-.54,0-.2.08-.37.23-.52.15-.15.34-.22.58-.22s.43.07.58.21c.15.14.23.31.23.52s-.07.4-.22.55c-.15.15-.34.23-.58.23ZM88.95,20.05v-5.35h1.24v5.35h-1.24Z"/>
        <path class="cls-3" d="M91.4,20.05v-.79l3.29-3.98.24.43h-3.47v-1h4.47v.79l-3.29,3.99-.25-.43h3.63v1h-4.62Z"/>
        <path class="cls-3" d="M97.79,13.82c-.23,0-.43-.07-.58-.22-.15-.15-.23-.33-.23-.54,0-.2.08-.37.23-.52.15-.15.34-.22.58-.22s.43.07.58.21c.15.14.23.31.23.52s-.07.4-.22.55c-.15.15-.34.23-.58.23ZM97.17,20.05v-5.35h1.24v5.35h-1.24Z"/>
        <path class="cls-3" d="M102.94,20.05v-7.01h3.07c.75,0,1.41.15,1.99.44.58.29,1.03.7,1.35,1.23.32.53.48,1.14.48,1.84s-.16,1.32-.48,1.84c-.32.53-.77.94-1.35,1.23-.58.29-1.24.44-1.99.44h-3.07ZM104.24,18.95h1.69c.53,0,.98-.1,1.37-.3.38-.2.68-.48.9-.84s.33-.78.33-1.26-.11-.92-.33-1.27-.52-.63-.9-.83c-.38-.2-.84-.3-1.37-.3h-1.69v4.81Z"/>
        <path class="cls-3" d="M113.61,20.12c-.59,0-1.11-.12-1.56-.36-.44-.24-.79-.56-1.03-.97-.24-.41-.36-.88-.36-1.42s.12-1.01.36-1.42.56-.73.98-.97.89-.36,1.43-.36.98.12,1.39.35.73.55.96.97.35.9.35,1.47c0,.05,0,.1,0,.17s0,.13-.01.19h-4.46v-.83h3.79l-.5.26c0-.3-.06-.57-.19-.81s-.31-.42-.54-.55c-.23-.13-.49-.2-.8-.2s-.57.07-.81.2c-.24.13-.42.31-.55.56-.13.24-.19.52-.19.83v.2c0,.32.07.6.22.85.14.25.35.44.62.57.27.14.58.21.93.21.3,0,.57-.05.81-.15s.45-.25.64-.44l.68.78c-.25.28-.55.49-.92.64-.36.15-.78.22-1.25.22Z"/>
        <path class="cls-3" d="M118.98,20.12c-.45,0-.88-.06-1.29-.18-.41-.12-.73-.26-.98-.43l.48-.95c.24.15.53.28.86.38.33.1.67.15,1.01.15.39,0,.67-.05.85-.16s.27-.25.27-.43c0-.15-.06-.26-.18-.33-.12-.08-.28-.14-.47-.18-.19-.04-.41-.08-.65-.11s-.47-.08-.71-.14c-.24-.06-.45-.14-.65-.25-.19-.11-.35-.26-.47-.45-.12-.19-.18-.44-.18-.75,0-.33.1-.63.29-.88.19-.25.47-.45.82-.59.35-.14.77-.21,1.25-.21.35,0,.72.04,1.09.12.37.08.68.2.93.35l-.49.95c-.25-.15-.5-.25-.76-.31s-.52-.09-.77-.09c-.37,0-.65.05-.84.17-.19.11-.28.25-.28.43,0,.16.06.28.18.36.12.08.28.14.47.18.19.04.41.08.65.12.24.04.47.08.7.14.23.06.45.14.65.24s.36.25.48.44c.12.19.18.43.18.73,0,.34-.1.63-.3.88-.2.24-.47.43-.83.57s-.79.21-1.29.21Z"/>
        <path class="cls-3" d="M124.09,20.12c-.4,0-.75-.07-1.05-.21-.3-.14-.53-.33-.7-.57-.16-.24-.25-.52-.25-.83s.07-.57.22-.81c.14-.24.38-.43.71-.57.33-.14.76-.21,1.3-.21h1.55v.83h-1.46c-.42,0-.71.07-.86.21-.15.14-.23.31-.23.52,0,.22.09.4.27.53.18.13.43.2.75.2s.58-.07.83-.21c.24-.14.42-.35.54-.62l.2.75c-.12.31-.33.56-.64.73-.31.17-.7.26-1.18.26ZM125.77,20.05v-1.09l-.06-.22v-1.89c0-.37-.11-.65-.33-.86-.22-.2-.56-.31-1.02-.31-.29,0-.58.05-.87.14s-.53.22-.74.39l-.49-.91c.29-.22.64-.39,1.03-.5.39-.11.8-.17,1.23-.17.78,0,1.38.19,1.8.56.42.37.63.95.63,1.72v3.13h-1.18Z"/>
        <path class="cls-3" d="M133.61,20.15c-.55,0-1.07-.08-1.57-.24-.5-.16-.9-.36-1.2-.61l.45-1.01c.28.22.63.4,1.04.55.41.15.84.22,1.27.22.37,0,.66-.04.89-.12.23-.08.39-.19.5-.33.11-.14.16-.29.16-.47,0-.21-.08-.39-.23-.52s-.35-.23-.6-.31c-.24-.08-.51-.15-.81-.21-.3-.06-.59-.14-.89-.24-.3-.09-.57-.21-.82-.36-.25-.14-.45-.34-.6-.58-.15-.24-.23-.55-.23-.92s.1-.73.31-1.05c.2-.32.51-.57.93-.76.42-.19.95-.29,1.59-.29.42,0,.84.05,1.25.16.41.11.77.26,1.08.46l-.41,1.01c-.31-.19-.64-.33-.97-.42-.33-.09-.65-.14-.96-.14-.35,0-.65.04-.87.13-.23.09-.39.2-.5.35-.1.14-.15.3-.15.48,0,.21.07.39.23.52s.35.23.59.31c.24.07.52.14.82.21.3.07.6.15.89.24.29.09.56.21.81.35.25.14.45.33.6.57.15.24.23.54.23.91s-.1.72-.31,1.04-.52.57-.94.76c-.42.19-.95.29-1.59.29Z"/>
        <path class="cls-3" d="M140.13,20.12c-.59,0-1.11-.12-1.56-.36-.44-.24-.79-.56-1.03-.97-.24-.41-.36-.88-.36-1.42s.12-1.01.36-1.42.56-.73.98-.97.89-.36,1.43-.36.98.12,1.39.35.73.55.96.97.35.9.35,1.47c0,.05,0,.1,0,.17s0,.13-.01.19h-4.46v-.83h3.79l-.5.26c0-.3-.06-.57-.19-.81s-.31-.42-.54-.55c-.23-.13-.49-.2-.8-.2s-.57.07-.81.2c-.24.13-.42.31-.55.56-.13.24-.19.52-.19.83v.2c0,.32.07.6.22.85.14.25.35.44.62.57.27.14.58.21.93.21.3,0,.57-.05.81-.15s.45-.25.64-.44l.68.78c-.25.28-.55.49-.92.64-.36.15-.78.22-1.25.22Z"/>
        <path class="cls-3" d="M143.86,20.05v-7.43h1.24v7.43h-1.24Z"/>
        <path class="cls-3" d="M149.14,20.12c-.54,0-1.03-.12-1.46-.36-.43-.24-.77-.56-1.02-.98-.25-.41-.37-.88-.37-1.41s.12-1.01.37-1.42c.25-.41.58-.73,1.01-.97.43-.24.92-.36,1.46-.36s1.05.12,1.48.36.77.56,1.01.97c.24.41.37.88.37,1.42s-.12,1.01-.37,1.42c-.24.41-.58.73-1.02.97-.43.24-.92.36-1.47.36ZM149.14,19.06c.31,0,.58-.07.82-.21s.43-.33.57-.59c.14-.26.21-.55.21-.89s-.07-.64-.21-.89c-.14-.25-.33-.44-.57-.58s-.51-.21-.81-.21-.57.07-.81.21-.43.33-.57.58c-.14.25-.21.55-.21.89s.07.63.21.89c.14.26.33.45.57.59s.51.21.8.21Z"/>
        <path class="cls-3" d="M153.21,20.05v-5.35h1.19v1.47l-.14-.43c.15-.36.4-.64.75-.83.35-.19.77-.28,1.27-.28v1.19s-.09-.01-.14-.01-.09,0-.13,0c-.48,0-.86.14-1.14.41-.28.27-.42.69-.42,1.25v2.58h-1.24Z"/>
        <path class="cls-3" d="M159.92,20.12c-.59,0-1.11-.12-1.56-.36-.44-.24-.79-.56-1.03-.97-.24-.41-.36-.88-.36-1.42s.12-1.01.36-1.42.56-.73.98-.97.89-.36,1.43-.36.98.12,1.39.35.73.55.96.97.35.9.35,1.47c0,.05,0,.1,0,.17s0,.13-.01.19h-4.46v-.83h3.79l-.5.26c0-.3-.06-.57-.19-.81s-.31-.42-.54-.55c-.23-.13-.49-.2-.8-.2s-.57.07-.81.2c-.24.13-.42.31-.55.56-.13.24-.19.52-.19.83v.2c0,.32.07.6.22.85.14.25.35.44.62.57.27.14.58.21.93.21.3,0,.57-.05.81-.15s.45-.25.64-.44l.68.78c-.25.28-.55.49-.92.64-.36.15-.78.22-1.25.22Z"/>
        <path class="cls-3" d="M163.07,22.06c-.23,0-.45-.03-.66-.08s-.39-.13-.54-.23l.36-.93c.19.14.44.21.73.21.23,0,.4-.07.53-.22.13-.14.19-.36.19-.64v-5.48h1.25v5.45c0,.59-.16,1.05-.49,1.4-.32.34-.79.52-1.39.52ZM164.31,13.82c-.23,0-.43-.07-.58-.22-.15-.15-.23-.33-.23-.54,0-.2.08-.37.23-.52.15-.15.34-.22.58-.22s.43.07.58.21c.15.14.23.31.23.52s-.07.4-.22.55c-.15.15-.34.23-.58.23Z"/>
        <path class="cls-3" d="M168.99,20.12c-.54,0-1.03-.12-1.46-.36-.43-.24-.77-.56-1.02-.98-.25-.41-.37-.88-.37-1.41s.12-1.01.37-1.42c.25-.41.58-.73,1.01-.97.43-.24.92-.36,1.46-.36s1.05.12,1.48.36.77.56,1.01.97c.24.41.37.88.37,1.42s-.12,1.01-.37,1.42c-.24.41-.58.73-1.02.97-.43.24-.92.36-1.47.36ZM168.99,19.06c.31,0,.58-.07.82-.21s.43-.33.57-.59c.14-.26.21-.55.21-.89s-.07-.64-.21-.89c-.14-.25-.33-.44-.57-.58s-.51-.21-.81-.21-.57.07-.81.21-.43.33-.57.58c-.14.25-.21.55-.21.89s.07.63.21.89c.14.26.33.45.57.59s.51.21.8.21Z"/>
      </g>
    </g>
  </g>
</svg>